<?xml version="1.0" standalone="no"?>
<!DOCTYPE svg PUBLIC "-//W3C//DTD SVG 1.1//EN" "http://www.w3.org/Graphics/SVG/1.1/DTD/svg11.dtd" >
<svg xmlns="http://www.w3.org/2000/svg">
<metadata></metadata>
<defs>
<font id="modern_lcd-7regular" horiz-adv-x="1740" >
<font-face units-per-em="2048" ascent="1536" descent="-512" />
<missing-glyph horiz-adv-x="500" />
<glyph horiz-adv-x="0" />
<glyph unicode="&#xd;" />
<glyph unicode=" " />
<glyph unicode="!" d="M614 0v307h308v-307h-308zM614 614v410h103v102h-103v1127h103v102h205v-1024h-103v-102h103v-615h-308zM717 1126h102v103h-102v-103z" />
<glyph unicode="&#x22;" d="M307 1741v512h103v102h204v-614h-307zM922 1741v614h204v-102h103v-512h-307z" />
<glyph unicode="#" d="M0 614v205h307v205h103v102h-103v410h-307v205h102v102h205v410h103v102h204v-512h308v512h204v-102h103v-410h205v-102h102v-205h-307v-410h-103v-102h103v-205h307v-205h-102v-102h-205v-410h-103v-102h-204v512h-308v-512h-204v102h-103v410h-205v102h-102zM410 1126 h102v103h-102v-103zM512 1229h102v-410h308v410h102v102h-102v205h-308v-205h-102v-102zM1024 1126h102v103h-102v-103z" />
<glyph unicode="$" d="M0 102v205h1229v717h-1127v102h-102v922h102v102h103v103h102v102h1127v-102h102v-205h-1229v-717h922v-102h102v-103h103v-102h102v-717h-102v-102h-103v-103h-102v-102h-1127v102h-102zM102 1126h103v103h-103v-103zM205 1229h102v102h-102v-102zM614 410v512h308v-410 h-103v-102h-205zM614 1434v409h103v103h205v-512h-308z" />
<glyph unicode="%" d="M0 102v512h102v103h103v102h102v103h103v102h102v102h102v103h103v102h102v205h103v102h102v103h102v102h103v512h205v-102h102v-512h-102v-103h-103v-102h-102v-102h-103v-103h-102v-102h-102v-205h-103v-102h-102v-103h-103v-102h-102v-103h-102v-102h-103v-512h-205 v102h-102zM0 1843v410h102v102h410v-102h102v-410h-102v-102h-410v102h-102zM205 1946h205v204h-205v-204zM819 1229h103v102h-103v-102zM922 102v410h102v102h410v-102h102v-410h-102v-102h-410v102h-102zM1126 205h205v205h-205v-205z" />
<glyph unicode="&#x26;" d="M0 102v922h102v102h-102v1127h102v102h1024v-102h103v-922h409v-307h-409v-717h409v-307h-614v102h-102v-102h-820v102h-102zM102 1126h103v103h-103v-103zM205 1229h102v102h-102v-102zM307 307h615v717h-615v-717zM307 1331h615v717h-615v-717zM922 1229h102v102h-102 v-102zM1024 102h102v103h-102v-103zM1024 1126h102v103h-102v-103zM1126 205h103v102h-103v-102zM1126 1024h103v102h-103v-102z" />
<glyph unicode="'" d="M614 1741v512h103v102h205v-614h-308z" />
<glyph unicode="(" d="M0 307v717h102v102h-102v922h102v102h103v103h102v102h307v-205h-102v-102h-102v-102h-103v-615h-102v-102h102v-819h103v-103h102v-102h102v-205h-307v102h-102v103h-103v102h-102zM102 1126h103v103h-103v-103z" />
<glyph unicode=")" d="M819 0v205h103v102h102v103h102v819h103v102h-103v615h-102v102h-102v102h-103v205h307v-102h103v-103h102v-102h103v-922h-103v-102h103v-717h-103v-102h-102v-103h-103v-102h-307zM1229 1126h102v103h-102v-103z" />
<glyph unicode="*" d="M102 614v205h103v103h307v-308h-102v-102h-205v102h-103zM102 1024v205h103v102h409v410h103v102h205v-512h512v-205h-103v-102h-409v-410h-103v-102h-205v512h-512zM102 1536v205h103v102h205v-102h102v-307h-307v102h-103zM1024 614v308h307v-103h103v-205h-103v-102 h-205v102h-102zM1024 1434v307h102v102h205v-102h103v-205h-103v-102h-307z" />
<glyph unicode="+" d="M102 1024v205h103v102h409v410h103v102h205v-512h512v-205h-103v-102h-409v-410h-103v-102h-205v512h-512z" />
<glyph unicode="," d="M614 102v308h308v-103h102v-102h102v-307h-307v102h-102v102h-103z" />
<glyph unicode="-" d="M102 1024v205h103v102h1126v-102h103v-205h-1332z" />
<glyph unicode="." d="M614 0v307h308v-307h-308z" />
<glyph unicode="/" d="M0 102v512h102v103h103v102h102v103h103v102h102v102h102v103h103v102h102v205h103v102h102v103h102v102h103v512h205v-102h102v-512h-102v-103h-103v-102h-102v-102h-103v-103h-102v-102h-102v-205h-103v-102h-102v-103h-103v-102h-102v-103h-102v-102h-103v-512h-205 v102h-102zM819 1229h103v102h-103v-102z" />
<glyph unicode="0" d="M0 102v922h102v102h-102v1127h102v102h1332v-102h102v-1127h-102v-102h102v-922h-102v-102h-1332v102h-102zM102 1126h103v103h-103v-103zM205 1229h102v-922h922v922h102v102h-102v717h-922v-717h-102v-102zM1331 1126h103v103h-103v-103z" />
<glyph unicode="1" d="M614 2048v205h103v102h717v-102h102v-1127h-102v-102h102v-922h-102v-102h-205v1229h102v102h-102v717h-615zM1331 1126h103v103h-103v-103z" />
<glyph unicode="2" d="M0 102v922h102v102h103v103h102v102h922v717h-1229v205h102v102h1332v-102h102v-1127h-102v-102h-1127v-717h1229v-205h-102v-102h-1332v102h-102zM1229 1229h102v102h-102v-102zM1331 1126h103v103h-103v-103z" />
<glyph unicode="3" d="M0 102v205h1229v717h-1127v102h103v103h102v102h922v717h-1229v205h102v102h1332v-102h102v-1127h-102v-102h102v-922h-102v-102h-1332v102h-102zM1229 1229h102v102h-102v-102zM1331 1126h103v103h-103v-103z" />
<glyph unicode="4" d="M0 1126v1127h102v102h205v-1024h922v1024h205v-102h102v-1127h-102v-102h102v-922h-102v-102h-205v1024h-1127v102h-102zM102 1126h103v103h-103v-103zM205 1229h102v102h-102v-102zM1229 1229h102v102h-102v-102zM1331 1126h103v103h-103v-103z" />
<glyph unicode="5" d="M0 102v205h1229v717h-1127v102h-102v1127h102v102h1332v-102h102v-205h-1229v-717h922v-102h102v-103h103v-102h102v-922h-102v-102h-1332v102h-102zM102 1126h103v103h-103v-103zM205 1229h102v102h-102v-102z" />
<glyph unicode="6" d="M0 102v922h102v102h-102v1127h102v102h1332v-102h102v-205h-1229v-717h922v-102h102v-103h103v-102h102v-922h-102v-102h-1332v102h-102zM102 1126h103v103h-103v-103zM205 1229h102v102h-102v-102zM307 307h922v717h-922v-717z" />
<glyph unicode="7" d="M0 1126v1127h102v102h1332v-102h102v-1127h-102v-102h102v-922h-102v-102h-205v1229h102v102h-102v717h-922v-717h-102v-102h-103v-103h-102zM1331 1126h103v103h-103v-103z" />
<glyph unicode="8" d="M0 102v922h102v102h-102v1127h102v102h1332v-102h102v-1127h-102v-102h102v-922h-102v-102h-1332v102h-102zM102 1126h103v103h-103v-103zM205 1229h102v102h-102v-102zM307 307h922v717h-922v-717zM307 1331h922v717h-922v-717zM1229 1229h102v102h-102v-102zM1331 1126 h103v103h-103v-103z" />
<glyph unicode="9" d="M0 102v205h1229v717h-1127v102h-102v1127h102v102h1332v-102h102v-1127h-102v-102h102v-922h-102v-102h-1332v102h-102zM102 1126h103v103h-103v-103zM205 1229h102v102h-102v-102zM307 1331h922v717h-922v-717zM1229 1229h102v102h-102v-102zM1331 1126h103v103h-103 v-103z" />
<glyph unicode=":" d="M614 512v307h308v-307h-308zM614 1536v307h308v-307h-308z" />
<glyph unicode=";" d="M614 102v308h308v-103h102v-102h102v-307h-307v102h-102v102h-103zM614 1536v307h308v-307h-308z" />
<glyph unicode="&#x3c;" d="M307 1126v103h103v102h102v103h102v102h103v102h102v103h103v102h102v103h307v-308h-102v-102h-103v-102h-102v-103h-102v-102h-103v-103h103v-102h102v-102h102v-103h103v-102h102v-307h-307v102h-102v102h-103v103h-102v102h-103v103h-102v102h-102v102h-103zM614 922 h103v102h-103v-102zM614 1331h103v103h-103v-103zM717 1024h102v102h-102v-102zM717 1229h102v102h-102v-102z" />
<glyph unicode="=" d="M102 819v205h1332v-205h-103v-102h-1126v102h-103zM102 1331v205h103v102h1126v-102h103v-205h-1332z" />
<glyph unicode="&#x3e;" d="M410 410v307h102v102h102v103h103v102h102v102h103v103h-103v102h-102v103h-103v102h-102v102h-102v308h307v-103h102v-102h103v-103h102v-102h102v-102h103v-103h102v-102h103v-103h-103v-102h-102v-102h-103v-103h-102v-102h-102v-103h-103v-102h-102v-102h-307z M922 1024h102v102h-102v-102zM922 1229h102v102h-102v-102zM1024 922h102v102h-102v-102zM1024 1331h102v103h-102v-103z" />
<glyph unicode="?" d="M0 1741v512h102v102h1332v-102h102v-1127h-102v-102h-512v-410h-308v615h103v102h512v717h-922v-205h-102v-102h-205zM614 0v307h308v-307h-308zM1229 1229h102v102h-102v-102zM1331 1126h103v103h-103v-103z" />
<glyph unicode="@" d="M0 102v922h102v102h-102v1127h102v102h1332v-102h102v-1127h-102v-102h102v-307h-102v-103h-717v103h-103v307h103v102h-103v512h103v103h409v-307h-204v-103h-103v-102h103v-307h307v307h102v102h-102v717h-922v-717h-102v-102h102v-922h1229v-205h-102v-102h-1332v102 h-102zM102 1126h103v103h-103v-103zM717 1126h102v103h-102v-103zM1331 1126h103v103h-103v-103z" />
<glyph unicode="A" d="M0 102v922h102v102h-102v1127h102v102h1332v-102h102v-1127h-102v-102h102v-922h-102v-102h-205v1024h-922v-1024h-205v102h-102zM102 1126h103v103h-103v-103zM205 1229h102v102h-102v-102zM307 1331h922v717h-922v-717zM1229 1229h102v102h-102v-102zM1331 1126h103 v103h-103v-103z" />
<glyph unicode="B" d="M0 0v1024h102v102h-102v1229h1229v-102h102v-103h103v-102h102v-922h-102v-102h102v-717h-102v-102h-103v-103h-102v-102h-1229zM102 1126h103v103h-103v-103zM205 1229h102v102h-102v-102zM307 307h922v717h-922v-717zM307 1331h922v717h-922v-717zM1229 1229h102v102 h-102v-102zM1331 1126h103v103h-103v-103z" />
<glyph unicode="C" d="M0 102v922h102v102h-102v1127h102v102h1332v-102h102v-205h-1229v-717h-102v-102h102v-922h1229v-205h-102v-102h-1332v102h-102zM102 1126h103v103h-103v-103z" />
<glyph unicode="D" d="M0 0v1024h102v102h-102v1229h1229v-102h102v-103h103v-102h102v-922h-102v-102h102v-717h-102v-102h-103v-103h-102v-102h-1229zM102 1126h103v103h-103v-103zM205 1229h102v-922h922v922h102v102h-102v717h-922v-717h-102v-102zM1331 1126h103v103h-103v-103z" />
<glyph unicode="E" d="M0 102v922h102v102h-102v1127h102v102h1332v-102h102v-205h-1229v-717h922v-102h102v-103h103v-102h-1127v-717h1229v-205h-102v-102h-1332v102h-102zM102 1126h103v103h-103v-103zM205 1229h102v102h-102v-102z" />
<glyph unicode="F" d="M0 102v922h102v102h-102v1127h102v102h1332v-102h102v-205h-1229v-717h922v-102h102v-103h103v-102h-1127v-1024h-205v102h-102zM102 1126h103v103h-103v-103zM205 1229h102v102h-102v-102z" />
<glyph unicode="G" d="M0 102v922h102v102h-102v1127h102v102h1332v-102h102v-205h-1229v-717h-102v-102h102v-922h922v717h-512v205h102v102h410v-102h102v-103h103v-102h102v-922h-102v-102h-1332v102h-102zM102 1126h103v103h-103v-103z" />
<glyph unicode="H" d="M0 102v922h102v102h-102v1127h102v102h205v-1024h922v1024h205v-102h102v-1127h-102v-102h102v-922h-102v-102h-205v1024h-922v-1024h-205v102h-102zM102 1126h103v103h-103v-103zM205 1229h102v102h-102v-102zM1229 1229h102v102h-102v-102zM1331 1126h103v103h-103 v-103z" />
<glyph unicode="I" d="M205 102v205h409v717h103v102h-103v922h-409v205h102v102h922v-102h102v-205h-409v-717h-103v-102h103v-922h409v-205h-102v-102h-922v102h-102zM717 1126h102v103h-102v-103z" />
<glyph unicode="J" d="M0 102v717h102v103h103v102h102v-717h922v922h102v102h-102v717h-1229v205h102v102h1332v-102h102v-1127h-102v-102h102v-922h-102v-102h-1332v102h-102zM1331 1126h103v103h-103v-103z" />
<glyph unicode="K" d="M0 102v922h102v102h-102v1127h102v102h205v-1024h103v103h102v102h102v102h103v103h102v102h103v103h102v102h102v102h103v103h102v102h205v-307h-102v-102h-103v-103h-102v-102h-103v-103h-102v-102h-102v-102h-103v-103h-102v-102h-205v-103h102v-102h103v-102h102 v-103h103v-102h102v-103h102v-102h103v-102h102v-103h103v-102h102v-205h-307v102h-103v103h-102v102h-102v103h-103v102h-102v102h-103v103h-102v102h-102v103h-103v-922h-205v102h-102zM102 1126h103v103h-103v-103zM205 1229h102v102h-102v-102zM410 1229h102v102h-102 v-102z" />
<glyph unicode="L" d="M0 102v922h102v102h-102v1127h102v102h205v-1024h-102v-102h102v-922h1229v-205h-102v-102h-1332v102h-102zM102 1126h103v103h-103v-103z" />
<glyph unicode="M" d="M0 102v922h102v102h-102v1127h102v102h205v-1024h-102v-102h102v-1229h-205v102h-102zM102 1126h103v103h-103v-103zM410 1229v409h102v-102h102v-102h103v-103h102v103h103v102h102v102h102v-409h-102v-103h-102v-102h-103v-102h-102v102h-103v102h-102v103h-102z M1229 0v1229h102v102h-102v1024h205v-102h102v-1127h-102v-102h102v-922h-102v-102h-205zM1331 1126h103v103h-103v-103z" />
<glyph unicode="N" d="M0 102v922h102v102h-102v1127h102v102h205v-1024h-102v-102h102v-1229h-205v102h-102zM102 1126h103v103h-103v-103zM410 1229v512h102v-103h102v-102h103v-102h102v-103h103v-102h102v-103h102v-512h-102v103h-102v102h-103v103h-102v102h-103v102h-102v103h-102z M1229 0v1229h102v102h-102v1024h205v-102h102v-1127h-102v-102h102v-922h-102v-102h-205zM1331 1126h103v103h-103v-103z" />
<glyph unicode="O" d="M0 102v922h102v102h-102v1127h102v102h1332v-102h102v-1127h-102v-102h102v-922h-102v-102h-1332v102h-102zM102 1126h103v103h-103v-103zM205 1229h102v-922h922v922h102v102h-102v717h-922v-717h-102v-102zM1331 1126h103v103h-103v-103z" />
<glyph unicode="P" d="M0 102v922h102v102h-102v1127h102v102h1332v-102h102v-1127h-102v-102h-1127v-1024h-205v102h-102zM102 1126h103v103h-103v-103zM205 1229h102v102h-102v-102zM307 1331h922v717h-922v-717zM1229 1229h102v102h-102v-102zM1331 1126h103v103h-103v-103z" />
<glyph unicode="Q" d="M0 102v922h102v102h-102v1127h102v102h1332v-102h102v-1127h-102v-102h102v-717h-102v-102h102v-205h-307v102h-103v-102h-1024v102h-102zM102 1126h103v103h-103v-103zM205 1229h102v-922h615v307h204v-102h103v717h102v102h-102v717h-922v-717h-102v-102zM922 205h102 v102h-102v-102zM1024 102h102v103h-102v-103zM1229 410h102v102h-102v-102zM1331 307h103v103h-103v-103zM1331 1126h103v103h-103v-103z" />
<glyph unicode="R" d="M0 102v922h102v102h-102v1127h102v102h1332v-102h102v-1127h-102v-102h-717v-102h102v-103h103v-102h102v-103h102v-102h103v-102h102v-103h103v-102h102v-205h-307v102h-103v103h-102v102h-102v103h-103v102h-102v102h-103v103h-102v102h-102v103h-103v-922h-205v102 h-102zM102 1126h103v103h-103v-103zM205 1229h102v102h-102v-102zM307 1331h922v717h-922v-717zM1229 1229h102v102h-102v-102zM1331 1126h103v103h-103v-103z" />
<glyph unicode="S" d="M0 102v205h1229v717h-1127v102h-102v922h102v102h103v103h102v102h1127v-102h102v-205h-1229v-717h922v-102h102v-103h103v-102h102v-717h-102v-102h-103v-103h-102v-102h-1127v102h-102zM102 1126h103v103h-103v-103zM205 1229h102v102h-102v-102z" />
<glyph unicode="T" d="M0 2048v205h102v102h1332v-102h102v-205h-614v-717h-103v-102h103v-1127h-103v-102h-205v1024h103v102h-103v922h-614zM717 1126h102v103h-102v-103z" />
<glyph unicode="U" d="M0 102v922h102v102h-102v1127h102v102h205v-1024h-102v-102h102v-922h922v922h102v102h-102v1024h205v-102h102v-1127h-102v-102h102v-922h-102v-102h-1332v102h-102zM102 1126h103v103h-103v-103zM1331 1126h103v103h-103v-103z" />
<glyph unicode="V" d="M0 614v410h102v102h-102v1127h102v102h205v-1024h-102v-102h102v-512h103v-103h102v-102h102v-102h308v102h102v102h102v103h103v512h102v102h-102v1024h205v-102h102v-1127h-102v-102h102v-410h-102v-102h-103v-102h-102v-103h-103v-102h-102v-103h-102v-102h-308v102 h-102v103h-102v102h-103v103h-102v102h-103v102h-102zM102 1126h103v103h-103v-103zM1331 1126h103v103h-103v-103z" />
<glyph unicode="W" d="M0 102v922h102v102h-102v1127h102v102h205v-1024h-102v-102h102v-922h307v1331h103v103h102v-103h103v-1331h307v922h102v102h-102v1024h205v-102h102v-1127h-102v-102h102v-922h-102v-102h-1332v102h-102zM102 1126h103v103h-103v-103zM1331 1126h103v103h-103v-103z " />
<glyph unicode="X" d="M0 102v512h102v103h103v102h102v103h103v102h102v102h102v103h-102v102h-102v103h-103v102h-102v102h-103v103h-102v512h102v102h205v-512h103v-102h102v-103h102v-102h308v102h102v103h102v102h103v512h205v-102h102v-512h-102v-103h-103v-102h-102v-102h-103v-103h-102 v-102h-102v-103h102v-102h102v-102h103v-103h102v-102h103v-103h102v-512h-102v-102h-205v512h-103v102h-102v103h-102v102h-308v-102h-102v-103h-102v-102h-103v-512h-205v102h-102zM614 1229h103v102h-103v-102zM717 1331h102v103h-102v-103zM819 1229h103v102h-103v-102z " />
<glyph unicode="Y" d="M0 102v205h1229v717h-1127v102h-102v1127h102v102h205v-1024h922v1024h205v-102h102v-1127h-102v-102h102v-922h-102v-102h-1332v102h-102zM102 1126h103v103h-103v-103zM205 1229h102v102h-102v-102zM1229 1229h102v102h-102v-102zM1331 1126h103v103h-103v-103z" />
<glyph unicode="Z" d="M0 102v512h102v103h103v102h102v103h103v102h102v102h102v103h103v102h102v205h103v102h102v103h102v102h103v205h-1229v205h102v102h1332v-102h102v-512h-102v-103h-103v-102h-102v-102h-103v-103h-102v-102h-102v-205h-103v-102h-102v-103h-103v-102h-102v-103h-102 v-102h-103v-205h1229v-205h-102v-102h-1332v102h-102zM819 1229h103v102h-103v-102z" />
<glyph unicode="[" d="M0 102v922h102v102h-102v1127h102v102h512v-205h-102v-102h-205v-717h-102v-102h102v-922h205v-102h102v-205h-512v102h-102zM102 1126h103v103h-103v-103z" />
<glyph unicode="\" d="M102 1741v512h103v102h205v-512h102v-102h102v-103h103v-102h102v-205h103v-102h102v-103h102v-102h103v-102h102v-103h103v-102h102v-103h102v-512h-102v-102h-205v512h-102v102h-103v103h-102v102h-102v103h-103v102h-102v205h-103v102h-102v103h-102v102h-103v102 h-102v103h-103zM717 1229h102v102h-102v-102z" />
<glyph unicode="]" d="M922 0v205h102v102h205v922h102v102h-102v717h-205v102h-102v205h512v-102h102v-1127h-102v-102h102v-922h-102v-102h-512zM1331 1126h103v103h-103v-103z" />
<glyph unicode="^" d="M0 1229v307h102v102h103v103h102v102h103v103h102v102h102v102h103v103h102v-103h103v-102h102v-102h102v-103h103v-102h102v-103h103v-102h102v-307h-307v102h-103v103h-102v102h-102v102h-103v103h-102v-103h-103v-102h-102v-102h-102v-103h-103v-102h-307zM512 1843 h102v103h-102v-103zM614 1741h103v102h-103v-102zM819 1741h103v102h-103v-102zM922 1843h102v103h-102v-103z" />
<glyph unicode="_" d="M0 102v205h1536v-205h-102v-102h-1332v102h-102z" />
<glyph unicode="`" d="M512 2048v307h307v-102h103v-103h102v-307h-307v103h-103v102h-102z" />
<glyph unicode="a" d="M0 102v922h102v102h-102v1127h102v102h1332v-102h102v-1127h-102v-102h102v-922h-102v-102h-205v1024h-922v-1024h-205v102h-102zM102 1126h103v103h-103v-103zM205 1229h102v102h-102v-102zM307 1331h922v717h-922v-717zM1229 1229h102v102h-102v-102zM1331 1126h103 v103h-103v-103z" />
<glyph unicode="b" d="M0 0v1024h102v102h-102v1229h1229v-102h102v-103h103v-102h102v-922h-102v-102h102v-717h-102v-102h-103v-103h-102v-102h-1229zM102 1126h103v103h-103v-103zM205 1229h102v102h-102v-102zM307 307h922v717h-922v-717zM307 1331h922v717h-922v-717zM1229 1229h102v102 h-102v-102zM1331 1126h103v103h-103v-103z" />
<glyph unicode="c" d="M0 102v922h102v102h-102v1127h102v102h1332v-102h102v-205h-1229v-717h-102v-102h102v-922h1229v-205h-102v-102h-1332v102h-102zM102 1126h103v103h-103v-103z" />
<glyph unicode="d" d="M0 0v1024h102v102h-102v1229h1229v-102h102v-103h103v-102h102v-922h-102v-102h102v-717h-102v-102h-103v-103h-102v-102h-1229zM102 1126h103v103h-103v-103zM205 1229h102v-922h922v922h102v102h-102v717h-922v-717h-102v-102zM1331 1126h103v103h-103v-103z" />
<glyph unicode="e" d="M0 102v922h102v102h-102v1127h102v102h1332v-102h102v-205h-1229v-717h922v-102h102v-103h103v-102h-1127v-717h1229v-205h-102v-102h-1332v102h-102zM102 1126h103v103h-103v-103zM205 1229h102v102h-102v-102z" />
<glyph unicode="f" d="M0 102v922h102v102h-102v1127h102v102h1332v-102h102v-205h-1229v-717h922v-102h102v-103h103v-102h-1127v-1024h-205v102h-102zM102 1126h103v103h-103v-103zM205 1229h102v102h-102v-102z" />
<glyph unicode="g" d="M0 102v922h102v102h-102v1127h102v102h1332v-102h102v-205h-1229v-717h-102v-102h102v-922h922v717h-512v205h102v102h410v-102h102v-103h103v-102h102v-922h-102v-102h-1332v102h-102zM102 1126h103v103h-103v-103z" />
<glyph unicode="h" d="M0 102v922h102v102h-102v1127h102v102h205v-1024h922v1024h205v-102h102v-1127h-102v-102h102v-922h-102v-102h-205v1024h-922v-1024h-205v102h-102zM102 1126h103v103h-103v-103zM205 1229h102v102h-102v-102zM1229 1229h102v102h-102v-102zM1331 1126h103v103h-103 v-103z" />
<glyph unicode="i" d="M205 102v205h409v717h103v102h-103v922h-409v205h102v102h922v-102h102v-205h-409v-717h-103v-102h103v-922h409v-205h-102v-102h-922v102h-102zM717 1126h102v103h-102v-103z" />
<glyph unicode="j" d="M0 102v717h102v103h103v102h102v-717h922v922h102v102h-102v717h-1229v205h102v102h1332v-102h102v-1127h-102v-102h102v-922h-102v-102h-1332v102h-102zM1331 1126h103v103h-103v-103z" />
<glyph unicode="k" d="M0 102v922h102v102h-102v1127h102v102h205v-1024h103v103h102v102h102v102h103v103h102v102h103v103h102v102h102v102h103v103h102v102h205v-307h-102v-102h-103v-103h-102v-102h-103v-103h-102v-102h-102v-102h-103v-103h-102v-102h-205v-103h102v-102h103v-102h102 v-103h103v-102h102v-103h102v-102h103v-102h102v-103h103v-102h102v-205h-307v102h-103v103h-102v102h-102v103h-103v102h-102v102h-103v103h-102v102h-102v103h-103v-922h-205v102h-102zM102 1126h103v103h-103v-103zM205 1229h102v102h-102v-102zM410 1229h102v102h-102 v-102z" />
<glyph unicode="l" d="M0 102v922h102v102h-102v1127h102v102h205v-1024h-102v-102h102v-922h1229v-205h-102v-102h-1332v102h-102zM102 1126h103v103h-103v-103z" />
<glyph unicode="m" d="M0 102v922h102v102h-102v1127h102v102h205v-1024h-102v-102h102v-1229h-205v102h-102zM102 1126h103v103h-103v-103zM410 1229v409h102v-102h102v-102h103v-103h102v103h103v102h102v102h102v-409h-102v-103h-102v-102h-103v-102h-102v102h-103v102h-102v103h-102z M1229 0v1229h102v102h-102v1024h205v-102h102v-1127h-102v-102h102v-922h-102v-102h-205zM1331 1126h103v103h-103v-103z" />
<glyph unicode="n" d="M0 102v922h102v102h-102v1127h102v102h205v-1024h-102v-102h102v-1229h-205v102h-102zM102 1126h103v103h-103v-103zM410 1229v512h102v-103h102v-102h103v-102h102v-103h103v-102h102v-103h102v-512h-102v103h-102v102h-103v103h-102v102h-103v102h-102v103h-102z M1229 0v1229h102v102h-102v1024h205v-102h102v-1127h-102v-102h102v-922h-102v-102h-205zM1331 1126h103v103h-103v-103z" />
<glyph unicode="o" d="M0 102v922h102v102h-102v1127h102v102h1332v-102h102v-1127h-102v-102h102v-922h-102v-102h-1332v102h-102zM102 1126h103v103h-103v-103zM205 1229h102v-922h922v922h102v102h-102v717h-922v-717h-102v-102zM1331 1126h103v103h-103v-103z" />
<glyph unicode="p" d="M0 102v922h102v102h-102v1127h102v102h1332v-102h102v-1127h-102v-102h-1127v-1024h-205v102h-102zM102 1126h103v103h-103v-103zM205 1229h102v102h-102v-102zM307 1331h922v717h-922v-717zM1229 1229h102v102h-102v-102zM1331 1126h103v103h-103v-103z" />
<glyph unicode="q" d="M0 102v922h102v102h-102v1127h102v102h1332v-102h102v-1127h-102v-102h102v-717h-102v-102h102v-205h-307v102h-103v-102h-1024v102h-102zM102 1126h103v103h-103v-103zM205 1229h102v-922h615v307h204v-102h103v717h102v102h-102v717h-922v-717h-102v-102zM922 205h102 v102h-102v-102zM1024 102h102v103h-102v-103zM1229 410h102v102h-102v-102zM1331 307h103v103h-103v-103zM1331 1126h103v103h-103v-103z" />
<glyph unicode="r" d="M0 102v922h102v102h-102v1127h102v102h1332v-102h102v-1127h-102v-102h-717v-102h102v-103h103v-102h102v-103h102v-102h103v-102h102v-103h103v-102h102v-205h-307v102h-103v103h-102v102h-102v103h-103v102h-102v102h-103v103h-102v102h-102v103h-103v-922h-205v102 h-102zM102 1126h103v103h-103v-103zM205 1229h102v102h-102v-102zM307 1331h922v717h-922v-717zM1229 1229h102v102h-102v-102zM1331 1126h103v103h-103v-103z" />
<glyph unicode="s" d="M0 102v205h1229v717h-1127v102h-102v922h102v102h103v103h102v102h1127v-102h102v-205h-1229v-717h922v-102h102v-103h103v-102h102v-717h-102v-102h-103v-103h-102v-102h-1127v102h-102zM102 1126h103v103h-103v-103zM205 1229h102v102h-102v-102z" />
<glyph unicode="t" d="M0 2048v205h102v102h1332v-102h102v-205h-614v-717h-103v-102h103v-1127h-103v-102h-205v1024h103v102h-103v922h-614zM717 1126h102v103h-102v-103z" />
<glyph unicode="u" d="M0 102v922h102v102h-102v1127h102v102h205v-1024h-102v-102h102v-922h922v922h102v102h-102v1024h205v-102h102v-1127h-102v-102h102v-922h-102v-102h-1332v102h-102zM102 1126h103v103h-103v-103zM1331 1126h103v103h-103v-103z" />
<glyph unicode="v" d="M0 614v410h102v102h-102v1127h102v102h205v-1024h-102v-102h102v-512h103v-103h102v-102h102v-102h308v102h102v102h102v103h103v512h102v102h-102v1024h205v-102h102v-1127h-102v-102h102v-410h-102v-102h-103v-102h-102v-103h-103v-102h-102v-103h-102v-102h-308v102 h-102v103h-102v102h-103v103h-102v102h-103v102h-102zM102 1126h103v103h-103v-103zM1331 1126h103v103h-103v-103z" />
<glyph unicode="w" d="M0 102v922h102v102h-102v1127h102v102h205v-1024h-102v-102h102v-922h307v1331h103v103h102v-103h103v-1331h307v922h102v102h-102v1024h205v-102h102v-1127h-102v-102h102v-922h-102v-102h-1332v102h-102zM102 1126h103v103h-103v-103zM1331 1126h103v103h-103v-103z " />
<glyph unicode="x" d="M0 102v512h102v103h103v102h102v103h103v102h102v102h102v103h-102v102h-102v103h-103v102h-102v102h-103v103h-102v512h102v102h205v-512h103v-102h102v-103h102v-102h308v102h102v103h102v102h103v512h205v-102h102v-512h-102v-103h-103v-102h-102v-102h-103v-103h-102 v-102h-102v-103h102v-102h102v-102h103v-103h102v-102h103v-103h102v-512h-102v-102h-205v512h-103v102h-102v103h-102v102h-308v-102h-102v-103h-102v-102h-103v-512h-205v102h-102zM614 1229h103v102h-103v-102zM717 1331h102v103h-102v-103zM819 1229h103v102h-103v-102z " />
<glyph unicode="y" d="M0 102v205h1229v717h-1127v102h-102v1127h102v102h205v-1024h922v1024h205v-102h102v-1127h-102v-102h102v-922h-102v-102h-1332v102h-102zM102 1126h103v103h-103v-103zM205 1229h102v102h-102v-102zM1229 1229h102v102h-102v-102zM1331 1126h103v103h-103v-103z" />
<glyph unicode="z" d="M0 102v512h102v103h103v102h102v103h103v102h102v102h102v103h103v102h102v205h103v102h102v103h102v102h103v205h-1229v205h102v102h1332v-102h102v-512h-102v-103h-103v-102h-102v-102h-103v-103h-102v-102h-102v-205h-103v-102h-102v-103h-103v-102h-102v-103h-102 v-102h-103v-205h1229v-205h-102v-102h-1332v102h-102zM819 1229h103v102h-103v-102z" />
<glyph unicode="{" d="M0 1024v307h102v103h103v819h102v102h512v-205h-102v-102h-205v-717h-102v-102h102v-922h205v-102h102v-205h-512v102h-102v922h-205zM205 1024h102v102h-102v-102zM307 1126h103v103h-103v-103z" />
<glyph unicode="|" d="M614 0v1024h103v102h-103v1127h103v102h205v-1024h-103v-102h103v-1127h-103v-102h-205zM717 1126h102v103h-102v-103z" />
<glyph unicode="}" d="M0 0v205h102v102h205v922h103v102h-103v717h-205v102h-102v205h512v-102h102v-922h103v-102h102v-205h-205v-922h-102v-102h-512zM410 1126h102v103h-102v-103zM512 1024h102v102h-102v-102z" />
<glyph unicode="~" d="M102 1126v103h103v102h102v103h103v102h102v102h102v103h103v-103h102v-102h103v-102h102v102h102v102h103v103h102v-103h103v-102h102v-102h-102v-103h-103v-102h-102v-103h-103v-102h-102v-102h-102v102h-103v102h-102v103h-103v-103h-102v-102h-102v-102h-103v102 h-102v102h-103zM410 1331h102v103h-102v-103zM512 1229h102v102h-102v-102zM717 1229h102v102h-102v-102zM819 1331h103v103h-103v-103zM1024 1331h102v103h-102v-103zM1126 1229h103v102h-103v-102z" />
<glyph unicode="&#xa0;" />
<glyph unicode="&#xa4;" d="M307 717v307h103v307h-103v307h307v-102h308v102h307v-307h-103v-307h103v-307h-307v102h-308v-102h-307zM410 922h102v102h-102v-102zM410 1331h102v103h-102v-103zM512 819h102v103h-102v-103zM512 1434h102v102h-102v-102zM614 1024h308v307h-308v-307zM922 819h102 v103h-102v-103zM922 1434h102v102h-102v-102zM1024 922h102v102h-102v-102zM1024 1331h102v103h-102v-103z" />
<glyph unicode="&#xa6;" d="M614 0v922h103v102h102v102h103v-1024h-103v-102h-205zM614 1229v1024h103v102h205v-921h-103v-103h-102v-102h-103z" />
<glyph unicode="&#xa7;" d="M0 102v205h1229v410h-1127v102h-102v615h102v102h-102v717h102v102h1332v-102h102v-205h-1229v-307h-102v-103h1229v-102h102v-512h-102v-102h102v-820h-102v-102h-1332v102h-102zM102 1536h103v102h-103v-102zM307 1024h922v307h-922v-307zM1229 717h102v102h-102v-102z M1331 819h103v103h-103v-103z" />
<glyph unicode="&#xa9;" d="M0 102v922h102v102h-102v1127h102v102h1332v-102h102v-1127h-102v-102h102v-922h-102v-102h-1332v102h-102zM102 1126h103v103h-103v-103zM205 1229h102v-922h922v922h102v102h-102v717h-922v-717h-102v-102zM512 1024v410h102v102h410v-205h-307v-205h307v-204h-410v102 h-102zM1331 1126h103v103h-103v-103z" />
<glyph unicode="&#xab;" d="M0 717v307h102v102h103v103h102v102h103v103h102v102h102v102h103v103h205v-205h-103v-102h-102v-103h-103v-102h-102v-103h-102v-102h-103v-102h-102v-103h102v-102h103v-103h102v-102h102v-102h103v-103h102v-102h103v-205h-205v102h-103v103h-102v102h-102v103h-103 v102h-102v102h-103v103h-102zM307 512h103v102h-103v-102zM307 1126h103v103h-103v-103zM614 717v307h103v102h102v103h103v102h102v103h102v102h103v102h102v103h205v-205h-102v-102h-103v-103h-102v-102h-103v-103h-102v-102h-102v-102h-103v-103h103v-102h102v-103h102 v-102h103v-102h102v-103h103v-102h102v-205h-205v102h-102v103h-103v102h-102v103h-102v102h-103v102h-102v103h-103zM922 512h102v102h-102v-102zM922 1126h102v103h-102v-103z" />
<glyph unicode="&#xac;" d="M0 2048v205h102v102h1332v-102h102v-410h-102v-102h-205v307h-1229zM1229 2048h102v102h-102v-102zM1331 2150h103v103h-103v-103z" />
<glyph unicode="&#xad;" d="M102 1024v205h103v102h1126v-102h103v-205h-1332z" />
<glyph unicode="&#xae;" d="M0 102v922h102v102h-102v1127h102v102h1332v-102h102v-1127h-102v-102h102v-922h-102v-102h-1332v102h-102zM102 1126h103v103h-103v-103zM205 1229h102v-922h922v922h102v102h-102v717h-922v-717h-102v-102zM512 922v614h410v-102h102v-205h-102v-103h102v-204h-205v204 h-102v-204h-205zM717 1229h102v205h-102v-205zM1331 1126h103v103h-103v-103z" />
<glyph unicode="&#xb0;" d="M410 1126v308h102v102h102v102h308v-102h102v-102h102v-308h-102v-102h-102v-102h-308v102h-102v102h-102zM614 1126h308v308h-308v-308z" />
<glyph unicode="&#xb1;" d="M102 102v205h1332v-205h-103v-102h-1126v102h-103zM102 1024v205h103v102h409v410h103v102h205v-512h512v-205h-103v-102h-409v-410h-103v-102h-205v512h-512z" />
<glyph unicode="&#xb5;" d="M0 102v922h102v102h-102v1127h102v102h205v-1024h-102v-102h102v-1229h-205v102h-102zM102 1126h103v103h-103v-103zM410 512v410h102v-103h102v-102h103v-103h102v103h103v102h102v103h102v-410h-102v-102h-102v-103h-103v-102h-102v102h-103v103h-102v102h-102zM1229 0 v1229h102v102h-102v1024h205v-102h102v-1127h-102v-102h102v-922h-102v-102h-205zM1331 1126h103v103h-103v-103z" />
<glyph unicode="&#xb6;" d="M0 2048v205h102v102h1332v-102h102v-205h-307v-922h-103v-102h103v-922h-103v-102h-204v1229h102v102h-102v717h-308v-717h-102v-102h102v-1229h-204v102h-103v922h103v102h-103v922h-307zM410 1126h102v103h-102v-103zM1024 1126h102v103h-102v-103z" />
<glyph unicode="&#xb7;" d="M614 1126v308h308v-308h-308z" />
<glyph unicode="&#xbb;" d="M0 0v205h102v102h103v103h102v102h103v102h102v103h102v102h103v103h-103v102h-102v102h-102v103h-103v102h-102v103h-103v102h-102v205h205v-103h102v-102h103v-102h102v-103h102v-102h103v-103h102v-102h103v-307h-103v-103h-102v-102h-103v-102h-102v-103h-102v-102 h-103v-103h-102v-102h-205zM512 512h102v102h-102v-102zM512 1126h102v103h-102v-103zM614 0v205h103v102h102v103h103v102h102v102h102v103h103v102h102v103h-102v102h-103v102h-102v103h-102v102h-103v103h-102v102h-103v205h205v-103h103v-102h102v-102h102v-103h103 v-102h102v-103h103v-102h102v-307h-102v-103h-103v-102h-102v-102h-103v-103h-102v-102h-102v-103h-103v-102h-205zM1126 512h103v102h-103v-102zM1126 1126h103v103h-103v-103z" />
<glyph unicode="&#x2000;" horiz-adv-x="1177" />
<glyph unicode="&#x2001;" horiz-adv-x="2355" />
<glyph unicode="&#x2002;" horiz-adv-x="1177" />
<glyph unicode="&#x2003;" horiz-adv-x="2355" />
<glyph unicode="&#x2004;" horiz-adv-x="785" />
<glyph unicode="&#x2005;" horiz-adv-x="588" />
<glyph unicode="&#x2006;" horiz-adv-x="392" />
<glyph unicode="&#x2007;" horiz-adv-x="392" />
<glyph unicode="&#x2008;" horiz-adv-x="294" />
<glyph unicode="&#x2009;" horiz-adv-x="471" />
<glyph unicode="&#x200a;" horiz-adv-x="130" />
<glyph unicode="&#x2010;" d="M102 1024v205h103v102h1126v-102h103v-205h-1332z" />
<glyph unicode="&#x2011;" d="M102 1024v205h103v102h1126v-102h103v-205h-1332z" />
<glyph unicode="&#x2012;" d="M102 1024v205h103v102h1126v-102h103v-205h-1332z" />
<glyph unicode="&#x2013;" d="M102 1024v205h103v102h1126v-102h103v-205h-1332z" />
<glyph unicode="&#x2014;" d="M0 1024v205h102v102h1332v-102h102v-205h-1536z" />
<glyph unicode="&#x2018;" d="M512 1843v307h102v103h103v102h307v-307h-102v-102h-103v-103h-307z" />
<glyph unicode="&#x2019;" d="M512 2048v307h307v-102h103v-103h102v-307h-307v103h-103v102h-102z" />
<glyph unicode="&#x201a;" d="M512 102v308h307v-103h103v-102h102v-307h-307v102h-103v102h-102z" />
<glyph unicode="&#x201c;" d="M205 1843v307h102v103h103v102h307v-307h-103v-102h-102v-103h-307zM819 1843v307h103v103h102v102h307v-307h-102v-102h-103v-103h-307z" />
<glyph unicode="&#x201d;" d="M205 2048v307h307v-102h102v-103h103v-307h-307v103h-103v102h-102zM819 2048v307h307v-102h103v-103h102v-307h-307v103h-102v102h-103z" />
<glyph unicode="&#x201e;" d="M205 102v308h307v-103h102v-102h103v-307h-307v102h-103v102h-102zM819 102v308h307v-103h103v-102h102v-307h-307v102h-102v102h-103z" />
<glyph unicode="&#x2022;" d="M512 1126v308h102v102h308v-102h102v-308h-102v-102h-308v102h-102z" />
<glyph unicode="&#x2026;" d="M0 0v307h307v-307h-307zM512 0v307h307v-307h-307zM1024 0v307h307v-307h-307z" />
<glyph unicode="&#x202f;" horiz-adv-x="471" />
<glyph unicode="&#x2039;" d="M205 1024v307h102v103h103v102h102v102h102v103h103v102h102v103h103v102h307v-307h-103v-103h-102v-102h-102v-102h-103v-103h-102v-307h102v-102h103v-103h102v-102h102v-103h103v-307h-307v103h-103v102h-102v102h-103v103h-102v102h-102v103h-103v102h-102zM512 819 h102v103h-102v-103zM512 1434h102v102h-102v-102zM614 922h103v102h-103v-102zM614 1331h103v103h-103v-103z" />
<glyph unicode="&#x203a;" d="M205 307v307h102v103h103v102h102v103h102v102h103v307h-103v103h-102v102h-102v102h-103v103h-102v307h307v-102h102v-103h103v-102h102v-103h103v-102h102v-102h102v-103h103v-307h-103v-102h-102v-103h-102v-102h-103v-103h-102v-102h-103v-102h-102v-103h-307z M717 922h102v102h-102v-102zM717 1331h102v103h-102v-103zM819 819h103v103h-103v-103zM819 1434h103v102h-103v-102z" />
<glyph unicode="&#x205f;" horiz-adv-x="588" />
<glyph unicode="&#x20ac;" d="M0 102v820h102v102h-102v307h102v103h-102v819h102v102h1332v-102h102v-205h-1229v-410h1024v-102h103v-205h-1127v-307h1127v-205h-103v-102h-1024v-410h1229v-205h-102v-102h-1332v102h-102zM102 819h103v103h-103v-103zM102 1434h103v102h-103v-102zM205 717h102v102 h-102v-102zM205 1536h102v102h-102v-102z" />
<glyph unicode="&#x2122;" d="M0 1434v204h614v-204h-614zM205 819v512h205v-512h-205zM717 819v512h205v103h-205v204h205v-102h102v-102h205v102h102v102h205v-204h-205v-103h205v-512h-205v512h-102v-307h-205v307h-102v-512h-205z" />
<glyph unicode="&#x25fc;" horiz-adv-x="2355" d="M0 0v2355h2355v-2355h-2355z" />
</font>
</defs>
</svg>
